<svg width="26" height="30" viewBox="0 0 26 30" fill="none" xmlns="http://www.w3.org/2000/svg">
<path d="M20.1152 13.9044C19.9859 13.8425 19.8547 13.7829 19.7217 13.7258C19.4902 9.45909 17.1587 7.01641 13.244 6.99141C13.2263 6.9913 13.2087 6.9913 13.1909 6.9913C10.8494 6.9913 8.90205 7.99077 7.70344 9.80948L9.85641 11.2864C10.7518 9.92786 12.1571 9.63825 13.192 9.63825C13.2039 9.63825 13.2159 9.63825 13.2278 9.63836C14.5167 9.64658 15.4894 10.0213 16.1189 10.7522C16.577 11.2843 16.8834 12.0195 17.0352 12.9475C15.8923 12.7532 14.6564 12.6935 13.3352 12.7693C9.61323 12.9837 7.22048 15.1544 7.38119 18.1706C7.46273 19.7006 8.22495 21.0169 9.52734 21.8767C10.6285 22.6036 12.0467 22.9591 13.5207 22.8786C15.4672 22.7719 16.9942 22.0292 18.0595 20.6713C18.8686 19.64 19.3803 18.3036 19.6062 16.6197C20.5339 17.1795 21.2214 17.9163 21.6011 18.8019C22.2467 20.3073 22.2844 22.7812 20.2658 24.7981C18.4972 26.565 16.3712 27.3294 13.1584 27.353C9.59441 27.3266 6.89903 26.1836 5.14658 23.9558C3.50555 21.8697 2.65745 18.8566 2.62581 15C2.65745 11.1434 3.50555 8.13025 5.14658 6.04417C6.89903 3.81639 9.59436 2.67344 13.1583 2.64695C16.7481 2.67364 19.4905 3.82209 21.31 6.06062C22.2022 7.15837 22.8748 8.53888 23.3183 10.1485L25.8413 9.47534C25.3038 7.49409 24.458 5.78683 23.307 4.37094C20.9744 1.50104 17.5628 0.0304919 13.1671 0H13.1495C8.76275 0.0303859 5.38939 1.50653 3.12317 4.38739C1.10655 6.951 0.0663125 10.5181 0.0313594 14.9895L0.03125 15L0.0313594 15.0105C0.0663125 19.4819 1.10655 23.0491 3.12317 25.6127C5.38939 28.4934 8.76275 29.9697 13.1495 30H13.1671C17.0672 29.973 19.8162 28.9519 22.0809 26.6892C25.0439 23.7291 24.9547 20.0186 23.9781 17.7408C23.2775 16.1073 21.9417 14.7807 20.1152 13.9044ZM13.3813 20.2355C11.7501 20.3273 10.0554 19.5952 9.97181 18.0269C9.90987 16.8641 10.7993 15.5666 13.4814 15.412C13.7886 15.3943 14.09 15.3856 14.3861 15.3856C15.3603 15.3856 16.2717 15.4803 17.1003 15.6614C16.7912 19.5211 14.9784 20.1478 13.3813 20.2355Z" fill="#D78B30"/>
</svg>
