<svg width="126" height="126" viewBox="0 0 126 126" fill="none" xmlns="http://www.w3.org/2000/svg">
<g clip-path="url(#clip0_858391_21444)">
<g opacity="0.25">
<path d="M2.29297 70.1982C2.29297 67.115 3.79615 64.3254 6.22669 62.3056C8.04991 60.7886 10.396 59.7062 13.0219 59.2627V63.3149C13.0219 64.8974 14.3033 66.1788 15.8858 66.1788H17.5856L19.7755 81.6693C18.7637 81.4652 17.7065 81.3581 16.6204 81.3581H15.7195C8.30569 81.3581 2.29297 76.3609 2.29297 70.1982Z" fill="white"/>
<path d="M123.709 114.841C123.709 117.923 122.206 120.711 119.775 122.732C117.346 124.752 113.988 126.002 110.283 126.002H15.7195C8.30569 126.002 2.29297 121.005 2.29297 114.842C2.29297 111.76 3.79615 108.969 6.22669 106.951C8.65597 104.931 12.0139 103.681 15.7195 103.681H16.6204C18.8557 103.681 20.9636 103.226 22.8146 102.425C25.0032 111.332 33.0206 117.739 42.366 117.739H81.9993C83.4748 117.739 84.9175 117.579 86.3085 117.274C87.9087 118.158 89.6576 118.81 91.506 119.183H91.5073C92.6866 119.423 93.9038 119.547 95.1562 119.547C96.9417 119.547 98.6666 119.292 100.296 118.816C107.062 116.84 112.208 111.068 113.267 103.958C119.246 105.086 123.708 109.531 123.708 114.841H123.709Z" fill="white"/>
<path d="M123.709 70.199C123.709 73.281 122.206 76.0719 119.775 78.0904C117.346 80.1115 113.988 81.3601 110.283 81.3601H104.633L106.78 66.1809H108.478C110.061 66.1809 111.345 64.8995 111.345 63.3169V59.0732C118.265 59.5231 123.709 64.3325 123.709 70.2003V70.199Z" fill="white"/>
<path d="M2.29297 25.5556C2.29297 22.4737 3.79615 19.6853 6.22669 17.6642C8.65597 15.6445 12.0139 14.3945 15.7195 14.3945H110.281C117.696 14.3945 123.708 19.3917 123.708 25.5544C123.708 28.6363 122.205 31.4272 119.774 33.447C117.345 35.4655 113.987 36.7167 110.281 36.7167H106.8C103.092 36.7167 99.7338 37.9654 97.3058 39.9864C94.8753 42.0049 93.3721 44.7958 93.3721 47.8778C93.3721 48.8026 93.5069 49.6997 93.7614 50.5578H91.3926C90.241 49.6367 88.8789 48.9664 87.3909 48.6275L75.9374 19.6525C75.4902 18.5198 74.2087 17.9654 73.076 18.4127L68.2766 20.3102C67.1439 20.7575 66.5895 22.039 67.0368 23.1717L77.8627 50.5578H46.7685C46.9511 49.9417 47.0721 49.3041 47.1263 48.6514L57.1987 23.1717C57.646 22.039 57.0904 20.7575 55.9589 20.3102L51.1595 18.4127C50.0255 17.9654 48.7454 18.521 48.2968 19.6525L40.8754 38.4278C38.8065 37.3442 36.3583 36.718 33.7337 36.718H15.7195C8.30569 36.718 2.29297 31.7208 2.29297 25.5569V25.5556Z" fill="white"/>
<path d="M112.738 47.3335C112.738 49.1365 112.084 50.7871 110.999 52.0597C110.515 51.1651 109.567 50.5566 108.477 50.5566H98.8969C98.4181 49.5851 98.1484 48.4914 98.1484 47.3335C98.1484 43.304 101.414 40.0381 105.443 40.0381C109.471 40.0381 112.738 43.304 112.738 47.3335Z" fill="white"/>
<path d="M22.1864 98.71C21.2049 99.2027 20.0961 99.4799 18.923 99.4799C14.8948 99.4799 11.6289 96.2152 11.6289 92.1857C11.6289 88.1563 14.8948 84.8916 18.923 84.8916C19.3766 84.8916 19.8189 84.9332 20.2511 85.0126L22.1864 98.7113V98.71Z" fill="white"/>
</g>
<g opacity="0.5">
<path d="M32.973 66.1791H15.8874C14.3049 66.1791 13.0234 64.8977 13.0234 63.3151V53.4216C13.0234 51.839 14.3049 50.5576 15.8874 50.5576H32.973C30.6798 52.3871 29.2107 55.2058 29.2107 58.3684C29.2107 61.531 30.6798 64.3496 32.973 66.1791Z" fill="#AEC1CD"/>
</g>
<g opacity="0.5">
<path d="M49.1894 58.3686C49.1894 55.5412 48.0151 52.9897 46.1289 51.1728L46.372 50.5566H77.862L78.1404 51.2635C76.3084 53.0729 75.1719 55.5866 75.1719 58.3674C75.1719 61.53 76.641 64.3486 78.9342 66.1781H45.4258C47.719 64.3486 49.1881 61.53 49.1881 58.3674L49.1894 58.3686Z" fill="#AEC1CD"/>
</g>
<g opacity="0.5">
<path d="M111.341 53.4216V63.3151C111.341 64.8977 110.059 66.1791 108.475 66.1791H91.3906C93.6838 64.3496 95.153 61.531 95.153 58.3684C95.153 55.2058 93.6838 52.3871 91.3906 50.5576H108.475C110.058 50.5576 111.341 51.839 111.341 53.4216Z" fill="#AEC1CD"/>
</g>
<path d="M34.0519 66.5572H15.8865C14.0986 66.5572 12.6445 65.1031 12.6445 63.3152V53.4217C12.6445 51.6337 14.0986 50.1797 15.8865 50.1797H34.0519L33.2077 50.8538C30.907 52.6896 29.5877 55.4288 29.5877 58.3697C29.5877 61.3105 30.907 64.0498 33.2077 65.8856L34.0519 66.5584V66.5572ZM15.8865 50.9344C14.5156 50.9344 13.4005 52.0495 13.4005 53.4204V63.3139C13.4005 64.6848 14.5156 65.7999 15.8865 65.7999H31.9704C29.9645 63.8545 28.8317 61.1971 28.8317 58.3672C28.8317 55.5372 29.9645 52.8799 31.9704 50.9344H15.8865Z" fill="#AEC1CD"/>
<path d="M80.0157 66.5572H44.3477L45.1919 65.8843C47.4926 64.0485 48.8118 61.3093 48.8118 58.3684C48.8118 55.7325 47.766 53.273 45.8672 51.446L45.6845 51.2696L46.1154 50.1797H78.1194L78.5844 51.359L78.4067 51.5342C76.5659 53.3524 75.5516 55.7791 75.5516 58.3697C75.5516 61.3105 76.8708 64.0498 79.1715 65.8856L80.0157 66.5584V66.5572ZM46.4292 65.8012H77.9355C75.9296 63.8557 74.7968 61.1984 74.7968 58.3684C74.7968 55.5385 75.8262 53.1142 77.7011 51.1738L77.6066 50.9357H46.6308L46.5741 51.0793C48.5082 53.0311 49.5691 55.609 49.5691 58.3684C49.5691 61.1278 48.4364 63.8557 46.4304 65.8012H46.4292Z" fill="#AEC1CD"/>
<path d="M108.477 66.5574H90.3125L91.1567 65.8846C93.4575 64.0488 94.7767 61.3096 94.7767 58.3687C94.7767 55.4279 93.4575 52.6886 91.1567 50.8528L90.3125 50.1787H108.477C110.266 50.1787 111.721 51.6328 111.721 53.4207V63.3142C111.721 65.1022 110.266 66.5562 108.477 66.5562V66.5574ZM92.394 65.8014H108.477C109.849 65.8014 110.965 64.6864 110.965 63.3155V53.422C110.965 52.0511 109.849 50.936 108.477 50.936H92.394C94.3999 52.8814 95.5339 55.5388 95.5339 58.3687C95.5339 61.1987 94.4012 63.856 92.394 65.8014Z" fill="#AEC1CD"/>
<g opacity="0.75">
<path d="M91.393 66.179C89.6857 67.5436 87.521 68.3588 85.1648 68.3588C82.8086 68.3588 80.6439 67.5436 78.9366 66.179H45.4282C43.7209 67.5436 41.5549 68.3588 39.2 68.3588C36.845 68.3588 34.6791 67.5436 32.9718 66.179H17.5859L18.1542 70.1984L22.4256 100.419C23.8292 110.352 32.3317 117.737 42.3651 117.737H81.9984C83.4739 117.737 84.9166 117.577 86.3076 117.272C80.6641 114.151 76.8425 108.14 76.8425 101.235C76.8425 94.9221 80.0378 89.3554 84.8989 86.0631H81.7577C80.6389 86.0631 79.7329 85.1559 79.7329 84.037V75.8873C79.7329 74.7684 80.6376 73.8612 81.7577 73.8612H87.4151C88.5328 73.8612 89.44 74.7684 89.44 75.8873V83.8341C91.238 83.2419 93.1595 82.9231 95.1553 82.9231C98.3973 82.9231 101.441 83.7648 104.082 85.2441L106.211 70.1971L106.779 66.1777H91.393V66.179ZM43.639 102.36C43.639 103.478 42.7318 104.385 41.6141 104.385H35.9567C34.8391 104.385 33.9319 103.478 33.9319 102.36V94.209C33.9319 93.0913 34.8391 92.1841 35.9567 92.1841H41.6141C42.7318 92.1841 43.639 93.0913 43.639 94.209V102.36ZM43.639 84.037C43.639 85.1559 42.7318 86.0631 41.6141 86.0631H35.9567C34.8391 86.0631 33.9319 85.1559 33.9319 84.037V75.8873C33.9319 74.7684 34.8391 73.8612 35.9567 73.8612H41.6141C42.7318 73.8612 43.639 74.7684 43.639 75.8873V84.037ZM58.7892 102.36C58.7892 103.478 57.882 104.385 56.7644 104.385H51.107C49.9894 104.385 49.0822 103.478 49.0822 102.36V94.209C49.0822 93.0913 49.9894 92.1841 51.107 92.1841H56.7644C57.882 92.1841 58.7892 93.0913 58.7892 94.209V102.36ZM58.7892 84.037C58.7892 85.1559 57.882 86.0631 56.7644 86.0631H51.107C49.9894 86.0631 49.0822 85.1559 49.0822 84.037V75.8873C49.0822 74.7684 49.9894 73.8612 51.107 73.8612H56.7644C57.882 73.8612 58.7892 74.7684 58.7892 75.8873V84.037ZM73.9394 102.36C73.9394 103.478 73.0322 104.385 71.9146 104.385H66.2572C65.1396 104.385 64.2324 103.478 64.2324 102.36V94.209C64.2324 93.0913 65.1396 92.1841 66.2572 92.1841H71.9146C73.0322 92.1841 73.9394 93.0913 73.9394 94.209V102.36ZM73.9394 84.037C73.9394 85.1559 73.0322 86.0631 71.9146 86.0631H66.2572C65.1396 86.0631 64.2324 85.1559 64.2324 84.037V75.8873C64.2324 74.7684 65.1396 73.8612 66.2572 73.8612H71.9146C73.0322 73.8612 73.9394 74.7684 73.9394 75.8873V84.037Z" fill="#AEC1CD"/>
</g>
<path d="M81.9995 118.115H42.3662C37.4232 118.115 32.6453 116.329 28.9132 113.089C25.1811 109.848 22.7455 105.367 22.0525 100.472L17.1523 65.8008H33.1065L33.2098 65.8839C34.9007 67.2359 37.0288 67.9806 39.2023 67.9806C41.3758 67.9806 43.4775 67.2561 45.1949 65.8839L45.2982 65.8008H79.0713L79.1746 65.8839C80.8894 67.2561 82.9621 67.9806 85.1671 67.9806C87.3721 67.9806 89.4423 67.2561 91.1597 65.8839L91.263 65.8008H107.217L104.382 85.8436L103.901 85.574C101.246 84.0872 98.2233 83.3009 95.1589 83.3009C93.2425 83.3009 91.3588 83.6008 89.5608 84.193L89.0643 84.3568V75.8883C89.0643 74.9799 88.326 74.2403 87.4188 74.2403H81.7614C80.8542 74.2403 80.1158 74.9799 80.1158 75.8883V84.038C80.1158 84.9465 80.8542 85.6861 81.7614 85.6861H86.1348L85.1142 86.3766C80.1738 89.7231 77.2241 95.2772 77.2241 101.236C77.2241 107.761 80.776 113.78 86.4939 116.943L87.3709 117.428L86.3919 117.642C84.958 117.956 83.4813 118.116 82.002 118.116L81.9995 118.115ZM18.0217 66.5568L22.8009 100.366C24.1705 110.053 32.5823 117.359 42.3662 117.359H81.9995C83.0919 117.359 84.1831 117.268 85.2553 117.09C79.8096 113.683 76.4656 107.698 76.4656 101.235C76.4656 95.4196 79.162 89.9726 83.7333 86.4408H81.7588C80.4346 86.4408 79.3573 85.3623 79.3573 84.0368V75.8871C79.3573 74.5616 80.4346 73.483 81.7588 73.483H87.4162C88.7405 73.483 89.8178 74.5616 89.8178 75.8871V83.3198C91.5415 82.8057 93.3357 82.5449 95.1564 82.5449C98.1666 82.5449 101.138 83.2719 103.785 84.6529L106.344 66.5568H91.5238C89.6931 67.9831 87.4969 68.7366 85.1646 68.7366C82.8324 68.7366 80.6349 67.9831 78.8054 66.5568H45.559C43.7509 67.9629 41.4981 68.7366 39.1998 68.7366C36.9016 68.7366 34.6474 67.9629 32.8406 66.5568H18.0217Z" fill="#AEC1CD"/>
<path d="M73.9414 75.8874V84.0371C73.9414 85.156 73.0342 86.0632 71.9166 86.0632H66.2592C65.1416 86.0632 64.2344 85.156 64.2344 84.0371V75.8874C64.2344 74.7685 65.1416 73.8613 66.2592 73.8613H71.9166C73.0342 73.8613 73.9414 74.7685 73.9414 75.8874Z" fill="#AEC1CD"/>
<path d="M71.9153 92.1846H66.2592C65.1409 92.1846 64.2344 93.0911 64.2344 94.2094V102.359C64.2344 103.477 65.1409 104.384 66.2592 104.384H71.9153C73.0336 104.384 73.9402 103.477 73.9402 102.359V94.2094C73.9402 93.0911 73.0336 92.1846 71.9153 92.1846Z" fill="#AEC1CD"/>
<path d="M58.7891 75.8874V84.0371C58.7891 85.156 57.8819 86.0632 56.7643 86.0632H51.1069C49.9892 86.0632 49.082 85.156 49.082 84.0371V75.8874C49.082 74.7685 49.9892 73.8613 51.1069 73.8613H56.7643C57.8819 73.8613 58.7891 74.7685 58.7891 75.8874Z" fill="#AEC1CD"/>
<path d="M56.763 92.1846H51.1068C49.9886 92.1846 49.082 93.0911 49.082 94.2094V102.359C49.082 103.477 49.9886 104.384 51.1068 104.384H56.763C57.8813 104.384 58.7878 103.477 58.7878 102.359V94.2094C58.7878 93.0911 57.8813 92.1846 56.763 92.1846Z" fill="#AEC1CD"/>
<path d="M43.6406 75.8874V84.0371C43.6406 85.156 42.7334 86.0632 41.6158 86.0632H35.9584C34.8408 86.0632 33.9336 85.156 33.9336 84.0371V75.8874C33.9336 74.7685 34.8408 73.8613 35.9584 73.8613H41.6158C42.7334 73.8613 43.6406 74.7685 43.6406 75.8874Z" fill="#AEC1CD"/>
<path d="M41.6146 92.1846H35.9584C34.8401 92.1846 33.9336 93.0911 33.9336 94.2094V102.359C33.9336 103.477 34.8401 104.384 35.9584 104.384H41.6146C42.7328 104.384 43.6394 103.477 43.6394 102.359V94.2094C43.6394 93.0911 42.7328 92.1846 41.6146 92.1846Z" fill="#AEC1CD"/>
<path d="M89.4414 75.8877V83.8345C87.816 84.3662 86.2902 85.1222 84.9004 86.0622H81.7592C80.6403 86.0622 79.7344 85.155 79.7344 84.0361V75.8864C79.7344 74.7676 80.6391 73.8604 81.7592 73.8604H87.4166C88.5342 73.8604 89.4414 74.7676 89.4414 75.8864V75.8877Z" fill="#AEC1CD"/>
<g opacity="0.25">
<path d="M49.192 58.3685C49.192 61.5311 47.7229 64.3497 45.4297 66.1792C43.7224 67.5438 41.5564 68.359 39.2015 68.359C36.8465 68.359 34.6806 67.5438 32.9733 66.1792C30.6801 64.3497 29.2109 61.5311 29.2109 58.3685C29.2109 55.2059 30.6801 52.3872 32.9733 50.5577C34.0884 49.6656 35.3988 49.0092 36.8314 48.6602C37.5899 48.4762 38.385 48.3779 39.2015 48.3779C41.5564 48.3779 43.7224 49.1931 45.4297 50.5577C45.6728 50.7518 45.9072 50.9584 46.1315 51.1739C48.019 52.9895 49.192 55.541 49.192 58.3697V58.3685Z" fill="#AEC1CD"/>
</g>
<g opacity="0.5">
<path d="M39.1997 63.1894C41.8621 63.1894 44.0204 61.031 44.0204 58.3686C44.0204 55.7062 41.8621 53.5479 39.1997 53.5479C36.5372 53.5479 34.3789 55.7062 34.3789 58.3686C34.3789 61.031 36.5372 63.1894 39.1997 63.1894Z" fill="#AEC1CD"/>
</g>
<g opacity="0.25">
<path d="M95.1569 58.3685C95.1569 61.5311 93.6877 64.3497 91.3945 66.1792C89.6872 67.5438 87.5225 68.359 85.1663 68.359C82.8101 68.359 80.6454 67.5438 78.9381 66.1792C76.6449 64.3497 75.1758 61.5311 75.1758 58.3685C75.1758 55.5876 76.311 53.0739 78.1443 51.2646C78.3963 51.0138 78.6609 50.7782 78.9381 50.5577C80.6454 49.1931 82.8101 48.3779 85.1663 48.3779C85.9324 48.3779 86.6771 48.4636 87.3927 48.6274C88.8808 48.9651 90.2429 49.6354 91.3945 50.5577C93.6877 52.3872 95.1569 55.2059 95.1569 58.3685Z" fill="#AEC1CD"/>
</g>
<path d="M39.2006 68.7371C36.857 68.7371 34.5613 67.9332 32.7368 66.4754C30.2558 64.4959 28.832 61.5412 28.832 58.3685C28.832 55.1959 30.2546 52.2412 32.7368 50.2617C33.9224 49.3129 35.2706 48.6502 36.741 48.2923C37.5399 48.0983 38.3677 48 39.2006 48C41.5442 48 43.8399 48.8039 45.6644 50.2617C45.9038 50.452 46.1482 50.6662 46.3914 50.9005C48.4401 52.8724 49.5691 55.5247 49.5691 58.3685C49.5691 61.5412 48.1466 64.4959 45.6644 66.4754C43.8399 67.9345 41.5442 68.7371 39.2006 68.7371ZM39.2006 48.756C38.4282 48.756 37.6609 48.8467 36.92 49.0269C35.5567 49.3583 34.308 49.9732 33.208 50.8526C30.9072 52.6885 29.588 55.4277 29.588 58.3685C29.588 61.3094 30.9072 64.0486 33.208 65.8844C34.9241 67.2566 36.9968 67.9811 39.2006 67.9811C41.4043 67.9811 43.477 67.2566 45.1931 65.8844C47.4939 64.0486 48.8131 61.3094 48.8131 58.3685C48.8131 55.7314 47.7673 53.2731 45.8685 51.4461C45.643 51.2294 45.4161 51.0303 45.1944 50.8539C43.477 49.4818 41.4056 48.756 39.2006 48.756Z" fill="#AEC1CD"/>
<path d="M85.1654 68.7368C82.7878 68.7368 80.5526 67.9543 78.7016 66.4751C76.2207 64.4956 74.7969 61.5409 74.7969 58.3683C74.7969 55.5748 75.8906 52.9566 77.8776 50.996C78.1346 50.7402 78.4118 50.4933 78.7016 50.2627C80.5526 48.7834 82.7878 48.001 85.1654 48.001C85.9479 48.001 86.7253 48.0879 87.4763 48.2605C88.9832 48.6033 90.4196 49.295 91.6292 50.2639C94.1102 52.2434 95.534 55.1981 95.534 58.3708C95.534 61.5435 94.1102 64.4982 91.6292 66.4776C89.7783 67.9569 87.543 68.7393 85.1654 68.7393V68.7368ZM85.1654 48.7557C82.9617 48.7557 80.889 49.4802 79.1729 50.8524C78.9045 51.0666 78.6474 51.2946 78.4093 51.5328C76.5672 53.3509 75.5529 55.779 75.5529 58.3683C75.5529 61.3091 76.8721 64.0483 79.1729 65.8842C80.889 67.2563 82.9617 67.9808 85.1654 67.9808C87.3692 67.9808 89.4419 67.2563 91.158 65.8842C93.4587 64.0483 94.778 61.3091 94.778 58.3683C94.778 55.4274 93.4587 52.6882 91.158 50.8524C90.0366 49.9552 88.7048 49.3126 87.3087 48.9951C86.6119 48.8364 85.8912 48.7545 85.1654 48.7545V48.7557Z" fill="#AEC1CD"/>
<g opacity="0.5">
<path d="M85.1645 63.1894C87.8269 63.1894 89.9853 61.031 89.9853 58.3686C89.9853 55.7062 87.8269 53.5479 85.1645 53.5479C82.5021 53.5479 80.3438 55.7062 80.3438 58.3686C80.3438 61.031 82.5021 63.1894 85.1645 63.1894Z" fill="#AEC1CD"/>
</g>
<g opacity="0.5">
<path d="M87.3903 48.6264C86.6746 48.4626 85.93 48.3769 85.1639 48.3769C82.8077 48.3769 80.643 49.1921 78.9357 50.5567C78.7971 50.6676 78.661 50.781 78.53 50.8994C78.4632 50.9586 78.399 51.0178 78.3334 51.0796C78.2679 51.1401 78.2049 51.2018 78.1419 51.2635L77.8635 50.5567L67.0375 23.1706C66.5902 22.0378 67.1459 20.7564 68.2774 20.3091L73.0767 18.4116C74.2095 17.9643 75.4909 18.5199 75.9382 19.6514L87.3916 48.6264H87.3903Z" fill="#AEC1CD"/>
<path d="M57.1987 23.1698L46.374 50.5559L46.1308 51.172C46.1308 51.172 46.117 51.1607 46.1119 51.1544C46.0691 51.1128 46.0263 51.0737 45.9834 51.0334C45.8045 50.8683 45.6205 50.7083 45.4303 50.5559C43.723 49.1913 41.557 48.3761 39.2021 48.3761C38.3856 48.3761 37.5906 48.4731 36.832 48.6583L48.298 19.6506C48.7466 18.5178 50.0268 17.9634 51.1608 18.4107L55.9601 20.3083C57.0928 20.7556 57.6472 22.037 57.1999 23.1698H57.1987Z" fill="#AEC1CD"/>
</g>
<path d="M77.9994 51.9322L77.5118 50.6961L66.6858 23.31C66.4326 22.6687 66.4439 21.9656 66.7186 21.3331C66.9933 20.6993 67.4973 20.2117 68.1386 19.9584L72.938 18.0608C73.5793 17.8076 74.2811 17.8189 74.9149 18.0936C75.5487 18.3683 76.0363 18.8723 76.2896 19.5136L88.0076 49.1564L87.3083 48.9964C86.6127 48.8376 85.892 48.757 85.1663 48.757C82.9625 48.757 80.8898 49.4815 79.1737 50.8536C79.0301 50.9683 78.9028 51.0754 78.7844 51.1825C78.7201 51.2404 78.6584 51.2959 78.5966 51.3551C78.5299 51.4168 78.4694 51.4773 78.4076 51.5365L78.0006 51.9334L77.9994 51.9322ZM73.8868 18.6341C73.66 18.6341 73.4319 18.677 73.2152 18.7627L68.4158 20.6602C67.9622 20.8391 67.6056 21.1844 67.4116 21.6329C67.2176 22.0815 67.2088 22.5779 67.3889 23.0315L78.2904 50.6079C78.4152 50.4958 78.55 50.3824 78.7012 50.2614C80.5521 48.7822 82.7874 47.9997 85.165 47.9997C85.7106 47.9997 86.2537 48.0426 86.7866 48.1257L75.5852 19.7908C75.4063 19.3372 75.0611 18.9806 74.6125 18.7853C74.3794 18.6845 74.1325 18.6341 73.8855 18.6341H73.8868Z" fill="#AEC1CD"/>
<path d="M46.2695 51.8464L45.8625 51.4394C45.8625 51.4394 45.8512 51.4293 45.8436 51.4218C45.8071 51.3865 45.7655 51.3487 45.7252 51.3096C45.5513 51.1484 45.3724 50.9946 45.1935 50.851C43.4774 49.4789 41.4047 48.7544 39.2009 48.7544C38.4285 48.7544 37.6612 48.8451 36.9203 49.0253L36.2109 49.1979L47.9453 19.5123C48.4707 18.188 49.9739 17.5366 51.2982 18.0595L56.0975 19.9571C57.4218 20.48 58.0745 21.9844 57.5503 23.3087L46.2695 51.8464ZM39.1997 47.9984C41.5433 47.9984 43.839 48.8022 45.6635 50.2601C45.7693 50.3445 45.8739 50.4314 45.9785 50.5221L46.02 50.415L56.8447 23.0289C57.2151 22.0915 56.754 21.0281 55.8165 20.6576L51.0172 18.7601C50.0798 18.3896 49.0151 18.852 48.6446 19.7882L37.4357 48.1445C38.014 48.0462 38.6037 47.9958 39.1971 47.9958L39.1997 47.9984Z" fill="#AEC1CD"/>
<path d="M106.779 66.1787L106.211 70.1981H18.1542L17.5859 66.1787H32.9718C34.6791 67.5433 36.845 68.3585 39.2 68.3585C41.5549 68.3585 43.7209 67.5433 45.4282 66.1787H78.9366C80.6439 67.5433 82.8086 68.3585 85.1648 68.3585C87.521 68.3585 89.6857 67.5433 91.393 66.1787H106.779Z" fill="#AEC1CD"/>
<g opacity="0.5">
<path d="M105.074 85.8395C104.75 85.6316 104.42 85.4325 104.084 85.2447C101.441 83.7655 98.3986 82.9238 95.1566 82.9238C93.1608 82.9238 91.2393 83.2426 89.4412 83.8348C87.8158 84.3665 86.29 85.1225 84.9002 86.0625C80.0391 89.3549 76.8438 94.9215 76.8438 101.234C76.8438 108.139 80.6653 114.15 86.3089 117.271C87.9091 118.156 89.6579 118.807 91.5064 119.18H91.5076C92.687 119.421 93.9042 119.544 95.1566 119.544C96.942 119.544 98.667 119.29 100.296 118.814C107.908 116.591 113.468 109.563 113.468 101.233C113.468 94.7729 110.124 89.0966 105.074 85.8382V85.8395ZM102.273 103.1C102.273 105.857 101.654 107.985 100.416 109.481C99.4179 110.685 98.0911 111.405 96.4355 111.639C96.0348 111.697 95.6165 111.725 95.178 111.725C92.905 111.725 91.1485 110.971 89.9049 109.467C88.8427 108.182 88.2367 106.452 88.0817 104.271C88.054 103.894 88.0401 103.505 88.0401 103.1V99.3693C88.0401 97.0295 88.4861 95.142 89.3795 93.7094C89.537 93.4536 89.7109 93.213 89.8974 92.9874C91.1359 91.4918 92.8861 90.7434 95.149 90.7434C97.412 90.7434 99.1659 91.4969 100.408 93.0013C101.483 94.3016 102.093 96.0681 102.238 98.2983C102.262 98.6486 102.273 99.0102 102.273 99.3832V103.101V103.1Z" fill="white"/>
</g>
<path d="M95.1569 119.924C93.9083 119.924 92.6672 119.801 91.4664 119.559L91.4311 119.552C89.5701 119.177 87.7859 118.52 86.1253 117.603C80.1667 114.307 76.4648 108.036 76.4648 101.235C76.4648 95.0265 79.538 89.2368 84.6876 85.7491C86.1265 84.7751 87.6864 84.0103 89.3231 83.4748C91.1968 82.8574 93.1598 82.5449 95.1569 82.5449C98.351 82.5449 101.501 83.3639 104.269 84.9137C104.603 85.0989 104.943 85.3043 105.28 85.521C110.645 88.9835 113.848 94.8576 113.848 101.233C113.848 105.358 112.531 109.27 110.039 112.543C107.627 115.711 104.205 118.067 100.404 119.177C98.7114 119.672 96.9461 119.923 95.1582 119.923L95.1569 119.924ZM91.5445 118.804L91.5836 118.812C92.7453 119.048 93.9473 119.168 95.1569 119.168C96.8743 119.168 98.5678 118.927 100.191 118.452C107.786 116.235 113.092 109.155 113.092 101.235C113.092 95.1159 110.019 89.48 104.87 86.1573C104.548 85.9494 104.221 85.7529 103.9 85.5752C101.244 84.0884 98.2213 83.3022 95.1569 83.3022C93.2405 83.3022 91.3568 83.6021 89.5588 84.1943C87.9888 84.7083 86.4932 85.4417 85.1122 86.3766C80.1718 89.7231 77.2221 95.2785 77.2221 101.236C77.2221 107.761 80.774 113.779 86.4919 116.943C88.0732 117.816 89.773 118.444 91.5445 118.805V118.804Z" fill="#AEC1CD"/>
<path d="M100.41 93.0021C99.1661 91.4964 97.4122 90.7441 95.1492 90.7441C92.8863 90.7441 91.1361 91.4926 89.8976 92.9882C88.659 94.4838 88.0391 96.612 88.0391 99.3688V103.1C88.0391 105.84 88.6602 107.962 89.9039 109.468C91.1462 110.973 92.9052 111.726 95.177 111.726C97.4487 111.726 99.1762 110.977 100.415 109.482C101.653 107.986 102.273 105.858 102.273 103.101V99.3827C102.273 96.6346 101.651 94.5065 100.408 93.0021H100.41ZM97.5483 103.817C97.5395 105.285 97.3429 106.363 96.9599 107.049C96.5756 107.737 95.9821 108.079 95.1782 108.079C94.3743 108.079 93.738 107.726 93.3537 107.021C92.9707 106.315 92.7792 105.2 92.7792 103.676V98.4579C92.8069 97.0933 93.006 96.0752 93.3752 95.4011C93.7443 94.7283 94.3353 94.3918 95.148 94.3918C95.9607 94.3918 96.5882 94.7547 96.9725 95.4792C97.3555 96.2037 97.547 97.2999 97.547 98.7678V103.817H97.5483Z" fill="#AEC1CD"/>
<g opacity="0.5">
<path d="M97.5464 98.7666V103.815C97.5376 105.283 97.3411 106.362 96.958 107.047C96.5737 107.735 95.9803 108.078 95.1764 108.078C94.3725 108.078 93.7362 107.725 93.3519 107.02C92.9689 106.314 92.7773 105.199 92.7773 103.674V98.4566C92.8051 97.0921 93.0041 96.074 93.3733 95.3999C93.7425 94.727 94.3334 94.3906 95.1461 94.3906C95.9588 94.3906 96.5863 94.7535 96.9706 95.478C97.3537 96.2025 97.5452 97.2987 97.5452 98.7666H97.5464Z" fill="#AEC1CD"/>
</g>
<path d="M28.595 43.7821C28.5346 43.7821 28.4716 43.767 28.4149 43.7355C27.5177 43.2478 26.7038 42.57 25.9957 41.7207C25.8621 41.5607 25.8835 41.3226 26.0435 41.1877C26.2036 41.0542 26.4417 41.0756 26.5765 41.2356C27.2229 42.0105 27.9625 42.6279 28.7752 43.0702C28.9592 43.1697 29.026 43.399 28.9264 43.583C28.8584 43.709 28.7286 43.7808 28.5938 43.7808L28.595 43.7821ZM24.7558 39.2637C24.6046 39.2637 24.4622 39.173 24.4043 39.0243C24.0061 38.01 23.7881 36.9768 23.7579 35.9524C23.7516 35.7433 23.9154 35.5694 24.1246 35.5631C24.3362 35.5581 24.5076 35.7206 24.5139 35.9298C24.5416 36.8533 24.747 37.8273 25.1086 38.7471C25.1855 38.9412 25.0897 39.1604 24.8957 39.2373C24.8503 39.2549 24.8037 39.2637 24.7571 39.2637H24.7558ZM29.2767 36.3934C29.1079 36.3934 28.9541 36.28 28.9113 36.1087C28.8596 35.9058 28.9819 35.7004 29.1835 35.6488C29.3813 35.5984 29.5816 35.5354 29.7782 35.461C30.3175 35.2582 31.0357 34.8764 31.396 34.2111C31.4956 34.0272 31.7249 33.9591 31.9088 34.0587C32.0928 34.1582 32.1608 34.3875 32.0613 34.5715C31.5901 35.4434 30.7043 35.9222 30.044 36.1704C29.8223 36.2536 29.5955 36.3254 29.3699 36.3834C29.3384 36.3909 29.3069 36.3947 29.2767 36.3947V36.3934ZM26.293 36.3304C26.2565 36.3304 26.2187 36.3254 26.1821 36.3141C25.1779 36.0041 24.2468 35.4169 23.492 34.6143C23.3484 34.4619 23.356 34.2237 23.5084 34.0801C23.6609 33.9364 23.899 33.944 24.0427 34.0965C24.7092 34.8033 25.5257 35.3212 26.4052 35.5921C26.6042 35.6538 26.7164 35.8655 26.6546 36.0646C26.6042 36.2271 26.4556 36.3317 26.293 36.3317V36.3304ZM24.6827 33.3707C24.6311 33.3707 24.5794 33.3606 24.529 33.3379C24.3388 33.2535 24.2518 33.0305 24.3362 32.839C24.7735 31.8524 25.4425 31.0183 26.3245 30.3568C26.4921 30.232 26.729 30.2661 26.8537 30.4324C26.9785 30.6 26.9444 30.8368 26.7781 30.9616C26.0007 31.5437 25.411 32.2795 25.0267 33.1452C24.9637 33.2863 24.8264 33.3694 24.6815 33.3694L24.6827 33.3707ZM22.2383 32.1485C22.0834 32.1485 21.9385 32.0527 21.883 31.8978C21.5302 30.9137 21.3324 29.8805 21.2971 28.8246C21.2896 28.6155 21.4534 28.4416 21.6625 28.434C21.8717 28.4277 22.0456 28.5903 22.0531 28.7994C22.0871 29.7772 22.2686 30.7335 22.5949 31.6432C22.6655 31.8398 22.5634 32.0565 22.3669 32.1271C22.3253 32.1422 22.2812 32.1498 22.2396 32.1498L22.2383 32.1485ZM31.6014 31.8549C31.4603 31.8549 31.3255 31.7755 31.2599 31.6407C30.8807 30.8482 30.286 30.2913 29.6295 30.1123C29.5237 30.0834 29.414 30.0632 29.3019 30.0519C29.094 30.0304 28.9428 29.8452 28.963 29.6386C28.9831 29.4307 29.1696 29.2782 29.3762 29.2996C29.53 29.3148 29.6824 29.3425 29.8273 29.3828C30.7081 29.6222 31.4578 30.3089 31.9403 31.3131C32.0311 31.5009 31.9517 31.7277 31.7627 31.8171C31.7098 31.8423 31.6543 31.8549 31.6001 31.8549H31.6014ZM22.0405 26.2013C22.0052 26.2013 21.97 26.1963 21.9359 26.1862C21.7356 26.1282 21.6197 25.9191 21.6776 25.7175C21.8402 25.1542 22.0556 24.6074 22.3152 24.0946C22.5231 23.6838 22.7688 23.2806 23.046 22.8951C23.1682 22.725 23.4038 22.6872 23.5739 22.8081C23.744 22.9303 23.7818 23.166 23.6609 23.3361C23.4064 23.6901 23.1808 24.0606 22.9906 24.4373C22.7512 24.9085 22.5546 25.41 22.4047 25.9279C22.3568 26.0929 22.2056 26.2013 22.0418 26.2013H22.0405ZM25.4476 21.3276C25.3367 21.3276 25.2271 21.2785 25.1515 21.1852C25.0217 21.0214 25.0481 20.7846 25.2107 20.6535C25.9591 20.0563 26.831 19.4905 27.8025 18.9714C27.9865 18.8731 28.2158 18.9424 28.3141 19.1264C28.4123 19.3104 28.343 19.5397 28.1591 19.638C27.2292 20.1357 26.3951 20.6749 25.6832 21.2445C25.6139 21.2999 25.5307 21.3264 25.4476 21.3264V21.3276Z" fill="#AEC1CD"/>
<path d="M93.0188 42.2248C92.8878 42.2248 92.7593 42.1555 92.69 42.0333C92.5867 41.8519 92.6509 41.6213 92.8324 41.518C92.8425 41.5117 93.9072 40.9056 95.3284 39.8686C95.4973 39.7451 95.7329 39.7829 95.8564 39.9505C95.9799 40.1194 95.942 40.3562 95.7745 40.4785C94.3154 41.5432 93.2507 42.1492 93.2066 42.1744C93.1474 42.2084 93.0831 42.2235 93.0201 42.2235L93.0188 42.2248ZM97.9127 38.6577C97.8081 38.6577 97.7035 38.6149 97.6292 38.5305C97.4906 38.3742 97.5057 38.1349 97.6619 37.9975C98.4444 37.3058 99.1551 36.6002 99.7775 35.8996C99.9161 35.7434 100.155 35.7295 100.312 35.8681C100.468 36.0067 100.482 36.2461 100.343 36.4024C99.7019 37.1256 98.9686 37.8539 98.1634 38.5658C98.0916 38.6288 98.0021 38.6603 97.9127 38.6603V38.6577ZM101.874 34.1091C101.807 34.1091 101.738 34.0915 101.678 34.0537C101.5 33.9441 101.443 33.7123 101.553 33.5333C102.101 32.6387 102.504 31.7454 102.751 30.8785C102.808 30.6782 103.017 30.561 103.219 30.6189C103.419 30.6756 103.536 30.8848 103.478 31.0864C103.212 32.0201 102.781 32.9764 102.198 33.929C102.126 34.0449 102.003 34.1091 101.875 34.1091H101.874ZM100.964 33.716C100.954 33.716 100.944 33.716 100.934 33.716C99.7813 33.6253 98.7569 33.3494 97.8875 32.8958C97.7023 32.7987 97.6304 32.5707 97.7275 32.3855C97.8245 32.2003 98.0525 32.1284 98.2378 32.2254C99.0152 32.6312 99.9425 32.8794 100.993 32.9625C101.201 32.9789 101.358 33.1616 101.34 33.3695C101.325 33.5674 101.158 33.7173 100.963 33.7173L100.964 33.716ZM103.973 33.5321C103.796 33.5321 103.637 33.4061 103.603 33.2246C103.564 33.0193 103.699 32.8214 103.903 32.7824C104.853 32.6009 105.794 32.3061 106.701 31.9067C106.893 31.8223 107.116 31.9092 107.2 32.1007C107.285 32.2922 107.198 32.5153 107.006 32.5997C106.047 33.0218 105.051 33.3342 104.044 33.5258C104.02 33.5308 103.996 33.5321 103.972 33.5321H103.973ZM109.463 31.1167C109.347 31.1167 109.234 31.0637 109.159 30.9642C109.035 30.7966 109.07 30.5597 109.238 30.435C109.932 29.9197 110.569 29.3375 111.133 28.7025C111.213 28.6118 111.293 28.5198 111.371 28.4278C111.506 28.2678 111.744 28.2476 111.904 28.3825C112.064 28.5173 112.084 28.7554 111.949 28.9154C111.867 29.0125 111.783 29.1095 111.698 29.2065C111.1 29.8793 110.423 30.498 109.689 31.0436C109.621 31.094 109.542 31.1179 109.463 31.1179V31.1167ZM95.9811 30.8256C95.8375 30.8256 95.7001 30.7437 95.6371 30.6038C95.3486 29.9726 95.2037 29.2657 95.2037 28.5022C95.2037 28.1317 95.2314 27.7701 95.2856 27.4261C95.3183 27.2195 95.5124 27.0796 95.7178 27.1124C95.9244 27.1451 96.0643 27.3392 96.0315 27.5445C95.9836 27.8482 95.9584 28.1708 95.9584 28.5022C95.9584 29.1561 96.0819 29.7584 96.3238 30.2901C96.4108 30.4803 96.3263 30.7046 96.1373 30.7903C96.0869 30.813 96.0328 30.8243 95.9811 30.8243V30.8256ZM103.396 28.3711C103.203 28.3711 103.04 28.225 103.021 28.0297C102.92 26.9801 102.596 26.1094 102.056 25.4416C101.925 25.2791 101.95 25.0409 102.112 24.9099C102.275 24.7788 102.513 24.804 102.644 24.9666C103.279 25.7516 103.658 26.7583 103.773 27.9578C103.793 28.1657 103.641 28.3497 103.433 28.3699C103.42 28.3699 103.409 28.3711 103.396 28.3711ZM113.325 26.5353C113.268 26.5353 113.21 26.5227 113.155 26.495C112.968 26.4017 112.893 26.1737 112.987 25.9872C113.437 25.0939 113.761 24.169 113.951 23.2354C113.993 23.0312 114.193 22.8989 114.397 22.9405C114.601 22.9821 114.734 23.1812 114.692 23.3865C114.489 24.3845 114.143 25.3748 113.663 26.3274C113.596 26.4597 113.464 26.5353 113.325 26.5353ZM96.9878 25.2123C96.887 25.2123 96.7862 25.172 96.7119 25.0926C96.5695 24.9401 96.5771 24.7007 96.7295 24.5584C97.4944 23.8427 98.4822 23.4483 99.5129 23.4483C99.6011 23.4483 99.6893 23.4508 99.7775 23.4571C99.9854 23.471 100.143 23.6511 100.129 23.859C100.115 24.0669 99.935 24.227 99.7271 24.2106C98.8186 24.1501 97.924 24.4752 97.2461 25.109C97.1731 25.177 97.0811 25.211 96.9878 25.211V25.2123ZM114.475 20.6813C114.285 20.6813 114.121 20.5377 114.1 20.3437C113.995 19.3684 113.731 18.4373 113.314 17.5754C113.223 17.3877 113.301 17.1609 113.489 17.0702C113.677 16.9794 113.903 17.0576 113.994 17.2453C114.45 18.1853 114.739 19.2008 114.852 20.263C114.875 20.4709 114.724 20.6574 114.517 20.6788C114.503 20.6801 114.489 20.6813 114.477 20.6813H114.475ZM111.895 15.3477C111.799 15.3477 111.703 15.3112 111.629 15.2394C110.965 14.5842 110.175 14.0096 109.28 13.5321C109.096 13.4338 109.027 13.2045 109.125 13.0205C109.224 12.8366 109.453 12.7673 109.637 12.8655C110.595 13.3784 111.444 13.9958 112.16 14.7014C112.308 14.8475 112.309 15.0869 112.163 15.2356C112.089 15.3112 111.992 15.3477 111.894 15.3477H111.895ZM106.655 12.4674C106.621 12.4674 106.587 12.4623 106.553 12.4535C105.993 12.2973 105.401 12.165 104.792 12.0617C104.587 12.0264 104.448 11.8311 104.484 11.6257C104.519 11.4203 104.713 11.2817 104.92 11.317C105.555 11.4254 106.172 11.5627 106.757 11.7265C106.958 11.7832 107.075 11.9911 107.019 12.1927C106.972 12.3603 106.82 12.4686 106.655 12.4686V12.4674Z" fill="#AEC1CD"/>
<g opacity="0.5">
<path d="M99.1165 5.7716C99.9815 3.02798 99.624 0.469998 98.3179 0.0581843C97.0118 -0.353629 95.2517 1.53667 94.3866 4.28029C93.5216 7.02391 93.8791 9.58189 95.1852 9.9937C96.4913 10.4055 98.2514 8.51522 99.1165 5.7716Z" fill="#AEC1CD"/>
</g>
<g opacity="0.5">
<path d="M98.7622 12.9235C98.2216 12.9235 97.6685 12.8642 97.1179 12.7458C95.7684 12.4573 94.5739 11.8499 93.7512 11.0385C92.9359 10.2334 92.5882 9.3249 92.7696 8.47692C93.0632 7.1073 94.6987 6.1875 96.8407 6.1875C97.3812 6.1875 97.9344 6.24672 98.485 6.36516C99.8344 6.6537 101.03 7.26102 101.852 8.07246C102.666 8.8776 103.015 9.78606 102.833 10.6328C102.54 12.0024 100.904 12.9222 98.7622 12.9222V12.9235Z" fill="#AEC1CD"/>
<path d="M96.8396 6.12402V6.25002C97.3764 6.25002 97.9245 6.30924 98.4713 6.42642C101.212 7.01358 103.141 8.89476 102.772 10.6197C102.484 11.9591 100.873 12.86 98.7624 12.86C98.2256 12.86 97.6775 12.8008 97.1307 12.6836C95.7938 12.3976 94.6082 11.7965 93.7955 10.9927C92.9966 10.2039 92.6539 9.31434 92.8316 8.4903C93.1189 7.15092 94.7304 6.25002 96.8409 6.25002V6.12402M96.8409 6.12402C94.7304 6.12402 93.0155 7.02996 92.7081 8.46384C92.3238 10.2593 94.2919 12.2048 97.1055 12.8071C97.6725 12.928 98.2307 12.986 98.7637 12.986C100.874 12.986 102.589 12.08 102.896 10.6462C103.281 8.85066 101.313 6.90522 98.4991 6.30294C97.9321 6.18198 97.3739 6.12402 96.8409 6.12402Z" fill="#AEC1CD"/>
</g>
<path d="M102.887 10.6444C103.272 8.84875 101.303 6.9046 98.4901 6.30207C95.6771 5.69954 93.085 6.66679 92.7004 8.46248C92.3157 10.2582 94.2843 12.2023 97.0972 12.8048C99.9102 13.4074 102.502 12.4401 102.887 10.6444Z" fill="#AEC1CD"/>
<g opacity="0.5">
<path d="M100.21 8.67757C102.463 6.88792 103.598 4.56791 102.746 3.49569C101.894 2.42347 99.3774 3.00507 97.125 4.79471C94.8727 6.58436 93.7375 8.90436 94.5895 9.97658C95.4415 11.0488 97.958 10.4672 100.21 8.67757Z" fill="#AEC1CD"/>
</g>
<path d="M73.1137 111.292H39.1983C38.9892 111.292 38.8203 111.123 38.8203 110.914C38.8203 110.705 38.9892 110.536 39.1983 110.536H73.1137C73.3229 110.536 73.4917 110.705 73.4917 110.914C73.4917 111.123 73.3229 111.292 73.1137 111.292Z" fill="#AEC1CD"/>
<path d="M73.1128 114.006H57.8819C57.6727 114.006 57.5039 113.837 57.5039 113.628C57.5039 113.419 57.6727 113.25 57.8819 113.25H73.1128C73.3219 113.25 73.4908 113.419 73.4908 113.628C73.4908 113.837 73.3219 114.006 73.1128 114.006Z" fill="#AEC1CD"/>
<path d="M70.4349 55.4572H53.9327C53.7235 55.4572 53.5547 55.2883 53.5547 55.0792C53.5547 54.87 53.7235 54.7012 53.9327 54.7012H70.4349C70.6441 54.7012 70.8129 54.87 70.8129 55.0792C70.8129 55.2883 70.6441 55.4572 70.4349 55.4572Z" fill="#AEC1CD"/>
<path d="M62.1844 60.2081H53.9327C53.7235 60.2081 53.5547 60.0393 53.5547 59.8301C53.5547 59.621 53.7235 59.4521 53.9327 59.4521H62.1844C62.3936 59.4521 62.5624 59.621 62.5624 59.8301C62.5624 60.0393 62.3936 60.2081 62.1844 60.2081Z" fill="#AEC1CD"/>
<path d="M102.27 63.5665H96.7882C96.579 63.5665 96.4102 63.3977 96.4102 63.1885C96.4102 62.9794 96.579 62.8105 96.7882 62.8105H102.27C102.48 62.8105 102.648 62.9794 102.648 63.1885C102.648 63.3977 102.48 63.5665 102.27 63.5665Z" fill="#AEC1CD"/>
<path d="M43.6361 49.7939C43.5895 49.7939 43.5428 49.785 43.4962 49.7674C43.3022 49.6905 43.2077 49.4713 43.2845 49.276L54.9395 19.9054C55.0164 19.7114 55.2356 19.6169 55.4309 19.6937C55.625 19.7706 55.7195 19.9898 55.6426 20.1851L43.9876 49.5557C43.9284 49.7044 43.786 49.7939 43.6361 49.7939Z" fill="#AEC1CD"/>
<path d="M78.9355 44.9391C78.7843 44.9391 78.6407 44.8472 78.5827 44.6972L73.5843 31.8036C73.5087 31.6096 73.6057 31.3904 73.7997 31.3148C73.9938 31.2392 74.213 31.3362 74.2886 31.5302L79.287 44.4238C79.3626 44.6178 79.2656 44.8371 79.0716 44.9127C79.0262 44.9303 78.9809 44.9379 78.9355 44.9379V44.9391Z" fill="#AEC1CD"/>
<path d="M32.9706 72.3859H22.9952C22.786 72.3859 22.6172 72.217 22.6172 72.0079C22.6172 71.7987 22.786 71.6299 22.9952 71.6299H32.9706C33.1798 71.6299 33.3486 71.7987 33.3486 72.0079C33.3486 72.217 33.1798 72.3859 32.9706 72.3859Z" fill="#AEC1CD"/>
</g>
<defs>
<clipPath id="clip0_858391_21444">
<rect width="126" height="126" fill="white"/>
</clipPath>
</defs>
</svg>
