<svg width="24" height="24" viewBox="0 0 24 24" fill="none" xmlns="http://www.w3.org/2000/svg">
<path d="M21.334 6.72949H15.584" stroke="#666666" strokeWidth="1.725" strokeMiterlimit="10" strokeLinecap="round" strokeLinejoin="round"/>
<path d="M5.99935 6.72949H2.16602" stroke="#666666" strokeWidth="1.725" strokeMiterlimit="10" strokeLinecap="round" strokeLinejoin="round"/>
<path d="M9.83268 10.0833C11.6851 10.0833 13.1868 8.58162 13.1868 6.72917C13.1868 4.87671 11.6851 3.375 9.83268 3.375C7.98023 3.375 6.47852 4.87671 6.47852 6.72917C6.47852 8.58162 7.98023 10.0833 9.83268 10.0833Z" stroke="#666666" strokeWidth="1.725" strokeMiterlimit="10" strokeLinecap="round" strokeLinejoin="round"/>
<path d="M21.3333 17.2705H17.5" stroke="#666666" strokeWidth="1.725" strokeMiterlimit="10" strokeLinecap="round" strokeLinejoin="round"/>
<path d="M7.91602 17.2705H2.16602" stroke="#666666" strokeWidth="1.725" strokeMiterlimit="10" strokeLinecap="round" strokeLinejoin="round"/>
<path d="M13.6667 20.6253C15.5191 20.6253 17.0208 19.1236 17.0208 17.2712C17.0208 15.4187 15.5191 13.917 13.6667 13.917C11.8142 13.917 10.3125 15.4187 10.3125 17.2712C10.3125 19.1236 11.8142 20.6253 13.6667 20.6253Z" stroke="#666666" strokeWidth="1.725" strokeMiterlimit="10" strokeLinecap="round" strokeLinejoin="round"/>
</svg>
