<svg width="24" height="24" viewBox="0 0 24 24" fill="none" xmlns="http://www.w3.org/2000/svg">
<path d="M13.707 3.86402L15.3937 7.23736C15.6237 7.70694 16.237 8.15736 16.7545 8.24361L19.8116 8.75152C21.7666 9.07736 22.2266 10.4957 20.8179 11.8949L18.4412 14.2715C18.0387 14.674 17.8183 15.4503 17.9429 16.0061L18.6233 18.9482C19.1599 21.2769 17.9237 22.1778 15.8633 20.9607L12.9979 19.2644C12.4804 18.9578 11.6274 18.9578 11.1004 19.2644L8.23494 20.9607C6.18411 22.1778 4.93827 21.2674 5.47494 18.9482L6.15536 16.0061C6.27994 15.4503 6.05952 14.674 5.65702 14.2715L3.28036 11.8949C1.88119 10.4957 2.33161 9.07736 4.28661 8.75152L7.34369 8.24361C7.85161 8.15736 8.46494 7.70694 8.69494 7.23736L10.3816 3.86402C11.3016 2.03361 12.7966 2.03361 13.707 3.86402Z" stroke="#666666" strokeWidth="1.725" strokeLinecap="round" strokeLinejoin="round"/>
</svg>
