<svg width="21" height="21" viewBox="0 0 21 21" fill="none" xmlns="http://www.w3.org/2000/svg">
<path d="M11.9073 1.77035L13.6671 5.31905C13.9071 5.81304 14.547 6.28687 15.087 6.37761L18.2766 6.91193C20.3164 7.2547 20.7963 8.74676 19.3265 10.2187L16.8468 12.7189C16.4268 13.1423 16.1968 13.9589 16.3268 14.5436L17.0368 17.6387C17.5967 20.0885 16.3068 21.0361 14.1571 19.7558L11.1674 17.9714C10.6275 17.6488 9.73756 17.6488 9.18762 17.9714L6.19796 19.7558C4.05819 21.0361 2.75833 20.0784 3.31827 17.6387L4.02819 14.5436C4.15818 13.9589 3.92821 13.1423 3.50825 12.7189L1.02853 10.2187C-0.431313 8.74676 0.0386358 7.2547 2.07841 6.91193L5.26806 6.37761C5.798 6.28687 6.43793 5.81304 6.6779 5.31905L8.43771 1.77035C9.3976 -0.155221 10.9574 -0.155221 11.9073 1.77035Z" fill="white"/>
</svg>
