<svg width="21" height="23" viewBox="0 0 21 23" fill="none" xmlns="http://www.w3.org/2000/svg">
<path fill-rule="evenodd" clip-rule="evenodd" d="M14.0084 14.333H6.99058C4.9251 14.4355 3.09517 15.6972 2.26481 17.5912C1.26328 19.5574 3.2621 21.416 5.58673 21.416H15.4123C17.7383 21.416 19.7371 19.5574 18.7342 17.5912C17.9038 15.6972 16.0739 14.4355 14.0084 14.333Z" stroke="black" stroke-opacity="0.8" strokeWidth="2.1249" strokeLinecap="round" strokeLinejoin="round"/>
<path fill-rule="evenodd" clip-rule="evenodd" d="M14.7496 5.83378C14.7496 8.18087 12.8469 10.0836 10.4998 10.0836C8.1527 10.0836 6.25 8.18087 6.25 5.83378C6.25 3.48668 8.1527 1.58398 10.4998 1.58398C11.6269 1.58398 12.7079 2.03173 13.5049 2.82872C14.3018 3.62571 14.7496 4.70666 14.7496 5.83378Z" stroke="black" stroke-opacity="0.8" strokeWidth="2.1249" strokeLinecap="round" strokeLinejoin="round"/>
</svg>
